<?xml version="1.0" standalone="no"?>
<!DOCTYPE svg PUBLIC "-//W3C//DTD SVG 20010904//EN"
 "http://www.w3.org/TR/2001/REC-SVG-20010904/DTD/svg10.dtd">
<svg version="1.0" xmlns="http://www.w3.org/2000/svg"
 width="1207.000000pt" height="132.000000pt" viewBox="0 0 1207.000000 132.000000"
 preserveAspectRatio="xMidYMid meet">
<metadata>
Created by potrace 1.16, written by Peter Selinger 2001-2019
</metadata>
<g transform="translate(0.000000,132.000000) scale(0.100000,-0.100000)"
fill="#000000" stroke="none">
<path d="M7508 1176 l-3 -146 52 0 c112 0 211 -61 279 -170 l36 -58 131 45
c73 25 133 46 135 48 2 1 -9 31 -23 66 -30 77 -97 168 -160 220 -73 60 -208
118 -295 125 -25 2 -68 7 -97 10 l-52 6 -3 -146z"/>
<path d="M8745 1293 c-46 -12 -103 -32 -125 -43 -22 -11 -46 -18 -52 -14 -7 4
-8 3 -4 -4 4 -6 -4 -16 -16 -23 -13 -7 -39 -25 -59 -40 -20 -16 -39 -26 -43
-24 -3 3 -4 2 -1 -1 2 -4 -13 -26 -34 -50 -51 -58 -107 -166 -127 -245 -14
-57 -35 -294 -25 -283 5 4 53 -171 54 -198 1 -9 3 -15 5 -13 3 2 26 -29 52
-68 49 -75 123 -145 200 -190 48 -28 162 -70 220 -83 47 -9 270 -11 270 -1 0
4 11 7 24 7 30 0 148 48 213 85 26 16 78 59 116 95 37 36 70 64 74 61 3 -3 3
-1 0 5 -4 6 7 36 23 65 58 104 74 179 74 334 0 125 -3 148 -27 218 -14 44 -35
95 -47 114 -11 19 -18 39 -14 44 3 5 2 8 -3 7 -4 -2 -39 29 -78 68 -38 39 -84
80 -102 90 -18 9 -29 22 -26 27 3 6 1 7 -6 3 -6 -4 -22 -1 -34 6 -29 18 -131
54 -182 63 -89 17 -233 11 -320 -12z m314 -529 c20 -4 43 -8 53 -8 9 -1 19 -4
23 -8 4 -4 13 -4 20 -2 7 3 16 0 20 -5 3 -6 11 -9 16 -5 6 3 17 3 26 -1 13 -4
1 -22 -57 -80 l-73 -74 12 -88 c7 -48 15 -98 18 -111 l5 -22 -43 23 c-26 14
-43 29 -41 38 3 10 0 11 -8 3 -8 -8 -21 -6 -47 7 -20 10 -41 23 -45 27 -5 5
-51 -14 -106 -44 -53 -29 -97 -52 -99 -50 -2 2 4 51 13 110 l18 107 -75 75
c-59 59 -71 77 -59 84 9 5 19 5 27 -2 9 -7 13 -7 13 1 0 6 7 11 15 11 8 0 15
-6 15 -12 0 -9 3 -8 10 2 5 8 17 16 27 18 95 13 86 6 139 113 l49 100 49 -100
c46 -92 52 -100 85 -107z"/>
<path d="M9788 1283 l-58 -4 0 -618 0 -618 83 -6 c45 -4 119 -7 165 -7 l82 0
0 174 c0 96 4 177 8 180 4 2 98 6 207 7 193 2 203 3 285 31 204 72 304 214
301 428 -2 97 -14 148 -53 223 -12 23 -21 45 -20 49 1 4 -7 10 -18 13 -11 4
-20 10 -20 15 0 5 -16 20 -35 33 -19 13 -33 27 -30 30 3 4 2 5 -1 3 -3 -2 -31
7 -62 21 -68 30 -73 31 -182 43 -79 9 -524 11 -652 3z m620 -291 c2 -6 8 -10
13 -6 5 3 15 2 22 -3 6 -4 15 -8 19 -8 3 0 21 -18 38 -40 30 -37 32 -45 28
-101 -3 -48 -10 -70 -32 -98 -19 -26 -33 -35 -44 -31 -9 3 -13 3 -9 -1 4 -4
-7 -14 -24 -21 -22 -9 -82 -13 -195 -13 l-164 0 0 163 c0 90 3 167 7 171 5 4
82 6 172 4 121 -2 165 -6 169 -16z"/>
<path d="M10985 1278 c-3 -7 -4 -290 -3 -628 l3 -615 510 0 510 0 0 140 0 140
-347 3 -348 2 0 95 0 95 335 0 335 0 0 145 0 145 -335 0 -335 0 0 106 0 106
348 -3 347 -3 0 140 0 139 -508 3 c-401 2 -509 0 -512 -10z"/>
<path d="M7853 493 c-13 -35 -58 -98 -93 -130 -47 -44 -127 -73 -198 -73 l-57
0 3 -140 3 -141 97 5 c113 5 201 30 286 81 32 19 63 32 69 28 5 -3 7 -2 4 4
-4 6 5 21 19 34 41 39 97 118 131 189 l32 65 -22 12 c-12 7 -27 12 -34 13 -6
0 -24 5 -40 12 -31 12 -38 14 -68 21 -11 3 -40 12 -65 21 -57 20 -59 20 -67
-1z"/>
</g>
</svg>
