<svg xmlns="http://www.w3.org/2000/svg" width="40" height="40" viewBox="0 0 40 40"><defs><style>.a{fill:#ff7f00;}.b{fill:#ffd3aa;}.c{fill:#fff;}</style></defs><g transform="translate(-8 -8)"><circle class="a" cx="3.333" cy="3.333" r="3.333" transform="translate(24.667 19.667)"/><path class="a" d="M37.007,36.342a1.664,1.664,0,0,1-1.633,1.992H26.107a1.664,1.664,0,0,1-1.633-1.992l.733-3.658A3.329,3.329,0,0,1,28.473,30h4.533a3.329,3.329,0,0,1,3.267,2.683Z" transform="translate(-2.74 -3.667)"/><path class="a" d="M28.333,10A18.333,18.333,0,1,1,10,28.333,18.334,18.334,0,0,1,28.333,10Zm4.633,25A1.664,1.664,0,0,0,34.6,33.008l-.733-3.658A3.329,3.329,0,0,0,30.6,26.667H28.333A3.333,3.333,0,1,0,25,23.333a3.332,3.332,0,0,0,3.333,3.333H26.067A3.329,3.329,0,0,0,22.8,29.35l-.733,3.658A1.664,1.664,0,0,0,23.7,35Z" transform="translate(-0.333 -0.333)"/><g transform="translate(8 8)"><path class="b" d="M28,8A20,20,0,1,0,48,28,20.023,20.023,0,0,0,28,8Zm0,36.667A16.667,16.667,0,1,1,44.667,28,16.686,16.686,0,0,1,28,44.667Z" transform="translate(-8 -8)"/><path class="c" d="M37.575,30.693a4.988,4.988,0,0,0-2.687-3.487,5,5,0,1,0-8.962,0A4.987,4.987,0,0,0,23.24,30.69l-.733,3.657a3.329,3.329,0,0,0,3.267,3.987H35.04a3.33,3.33,0,0,0,3.268-3.985Zm-7.168-7.359A1.667,1.667,0,1,1,28.74,25,1.668,1.668,0,0,1,30.407,23.333ZM25.774,35l.733-3.659v0A1.668,1.668,0,0,1,28.14,30h4.532a1.669,1.669,0,0,1,1.632,1.343L35.04,35Z" transform="translate(-10.407 -10)"/></g></g></svg>